<mxfile host="app.diagrams.net" modified="2024-02-27T13:55:53.976Z" agent="Mozilla/5.0 (Windows NT 10.0; Win64; x64) AppleWebKit/537.36 (KHTML, like Gecko) Chrome/122.0.0.0 Safari/537.36" etag="o1jGuKzsaj-psZoex1pY" version="23.1.7" type="device">
  <diagram name="Page-1" id="FU4PQciJnpI4wU29mGD9">
    <mxGraphModel dx="1218" dy="499" grid="1" gridSize="10" guides="1" tooltips="1" connect="1" arrows="1" fold="1" page="1" pageScale="1" pageWidth="850" pageHeight="1100" math="0" shadow="0">
      <root>
        <mxCell id="0" />
        <mxCell id="1" parent="0" />
        <mxCell id="SvfsxJWIayDTi6wD-098-13" style="edgeStyle=orthogonalEdgeStyle;rounded=0;orthogonalLoop=1;jettySize=auto;html=1;exitX=0.5;exitY=1;exitDx=0;exitDy=0;entryX=0.5;entryY=1;entryDx=0;entryDy=0;" edge="1" parent="1" source="SvfsxJWIayDTi6wD-098-3" target="SvfsxJWIayDTi6wD-098-4">
          <mxGeometry relative="1" as="geometry" />
        </mxCell>
        <mxCell id="SvfsxJWIayDTi6wD-098-14" value="Read Doctor List" style="edgeLabel;html=1;align=center;verticalAlign=middle;resizable=0;points=[];" vertex="1" connectable="0" parent="SvfsxJWIayDTi6wD-098-13">
          <mxGeometry x="0.0318" y="2" relative="1" as="geometry">
            <mxPoint x="5" y="-12" as="offset" />
          </mxGeometry>
        </mxCell>
        <mxCell id="SvfsxJWIayDTi6wD-098-15" style="edgeStyle=orthogonalEdgeStyle;rounded=0;orthogonalLoop=1;jettySize=auto;html=1;exitX=0;exitY=0.5;exitDx=0;exitDy=0;entryX=1;entryY=0.5;entryDx=0;entryDy=0;" edge="1" parent="1" source="SvfsxJWIayDTi6wD-098-3" target="SvfsxJWIayDTi6wD-098-4">
          <mxGeometry relative="1" as="geometry" />
        </mxCell>
        <mxCell id="SvfsxJWIayDTi6wD-098-16" value="Read Donor List" style="edgeLabel;html=1;align=center;verticalAlign=middle;resizable=0;points=[];" vertex="1" connectable="0" parent="SvfsxJWIayDTi6wD-098-15">
          <mxGeometry x="0.0481" y="1" relative="1" as="geometry">
            <mxPoint x="9" y="-11" as="offset" />
          </mxGeometry>
        </mxCell>
        <mxCell id="SvfsxJWIayDTi6wD-098-18" style="edgeStyle=orthogonalEdgeStyle;rounded=0;orthogonalLoop=1;jettySize=auto;html=1;exitX=0.5;exitY=0;exitDx=0;exitDy=0;entryX=0.5;entryY=0;entryDx=0;entryDy=0;" edge="1" parent="1" source="SvfsxJWIayDTi6wD-098-3" target="SvfsxJWIayDTi6wD-098-4">
          <mxGeometry relative="1" as="geometry" />
        </mxCell>
        <mxCell id="SvfsxJWIayDTi6wD-098-19" value="Read Medicine" style="edgeLabel;html=1;align=center;verticalAlign=middle;resizable=0;points=[];" vertex="1" connectable="0" parent="SvfsxJWIayDTi6wD-098-18">
          <mxGeometry x="-0.0417" y="-1" relative="1" as="geometry">
            <mxPoint y="-9" as="offset" />
          </mxGeometry>
        </mxCell>
        <mxCell id="SvfsxJWIayDTi6wD-098-3" value="NexusHealth" style="ellipse;whiteSpace=wrap;html=1;aspect=fixed;" vertex="1" parent="1">
          <mxGeometry x="360" y="360" width="80" height="80" as="geometry" />
        </mxCell>
        <mxCell id="SvfsxJWIayDTi6wD-098-5" style="edgeStyle=orthogonalEdgeStyle;rounded=0;orthogonalLoop=1;jettySize=auto;html=1;exitX=1;exitY=0.25;exitDx=0;exitDy=0;entryX=0;entryY=0;entryDx=0;entryDy=0;" edge="1" parent="1" source="SvfsxJWIayDTi6wD-098-4" target="SvfsxJWIayDTi6wD-098-3">
          <mxGeometry relative="1" as="geometry">
            <Array as="points">
              <mxPoint x="170" y="372" />
            </Array>
          </mxGeometry>
        </mxCell>
        <mxCell id="SvfsxJWIayDTi6wD-098-6" value="Login / Registration" style="edgeLabel;html=1;align=center;verticalAlign=middle;resizable=0;points=[];" vertex="1" connectable="0" parent="SvfsxJWIayDTi6wD-098-5">
          <mxGeometry x="-0.1823" relative="1" as="geometry">
            <mxPoint y="-12" as="offset" />
          </mxGeometry>
        </mxCell>
        <mxCell id="SvfsxJWIayDTi6wD-098-11" style="edgeStyle=orthogonalEdgeStyle;rounded=0;orthogonalLoop=1;jettySize=auto;html=1;exitX=1;exitY=1;exitDx=0;exitDy=0;entryX=0;entryY=1;entryDx=0;entryDy=0;" edge="1" parent="1" source="SvfsxJWIayDTi6wD-098-4" target="SvfsxJWIayDTi6wD-098-3">
          <mxGeometry relative="1" as="geometry">
            <Array as="points">
              <mxPoint x="170" y="428" />
            </Array>
          </mxGeometry>
        </mxCell>
        <mxCell id="SvfsxJWIayDTi6wD-098-12" value="Doctor Appointment" style="edgeLabel;html=1;align=center;verticalAlign=middle;resizable=0;points=[];" vertex="1" connectable="0" parent="SvfsxJWIayDTi6wD-098-11">
          <mxGeometry x="-0.2993" y="-1" relative="1" as="geometry">
            <mxPoint x="10" y="-9" as="offset" />
          </mxGeometry>
        </mxCell>
        <mxCell id="SvfsxJWIayDTi6wD-098-20" style="edgeStyle=orthogonalEdgeStyle;rounded=0;orthogonalLoop=1;jettySize=auto;html=1;exitX=0.25;exitY=0;exitDx=0;exitDy=0;entryX=1;entryY=0;entryDx=0;entryDy=0;" edge="1" parent="1" source="SvfsxJWIayDTi6wD-098-4" target="SvfsxJWIayDTi6wD-098-3">
          <mxGeometry relative="1" as="geometry">
            <Array as="points">
              <mxPoint x="80" y="300" />
              <mxPoint x="428" y="300" />
            </Array>
          </mxGeometry>
        </mxCell>
        <mxCell id="SvfsxJWIayDTi6wD-098-21" value="Buy Medicine" style="edgeLabel;html=1;align=center;verticalAlign=middle;resizable=0;points=[];" vertex="1" connectable="0" parent="SvfsxJWIayDTi6wD-098-20">
          <mxGeometry x="-0.0188" y="2" relative="1" as="geometry">
            <mxPoint y="-8" as="offset" />
          </mxGeometry>
        </mxCell>
        <mxCell id="SvfsxJWIayDTi6wD-098-23" style="edgeStyle=orthogonalEdgeStyle;rounded=0;orthogonalLoop=1;jettySize=auto;html=1;exitX=0.25;exitY=1;exitDx=0;exitDy=0;entryX=1;entryY=1;entryDx=0;entryDy=0;" edge="1" parent="1" source="SvfsxJWIayDTi6wD-098-4" target="SvfsxJWIayDTi6wD-098-3">
          <mxGeometry relative="1" as="geometry">
            <Array as="points">
              <mxPoint x="80" y="490" />
              <mxPoint x="428" y="490" />
            </Array>
          </mxGeometry>
        </mxCell>
        <mxCell id="SvfsxJWIayDTi6wD-098-24" value="Manage Profile" style="edgeLabel;html=1;align=center;verticalAlign=middle;resizable=0;points=[];" vertex="1" connectable="0" parent="SvfsxJWIayDTi6wD-098-23">
          <mxGeometry x="-0.0219" y="-3" relative="1" as="geometry">
            <mxPoint y="-13" as="offset" />
          </mxGeometry>
        </mxCell>
        <mxCell id="SvfsxJWIayDTi6wD-098-4" value="User" style="rounded=0;whiteSpace=wrap;html=1;" vertex="1" parent="1">
          <mxGeometry x="50" y="370" width="120" height="60" as="geometry" />
        </mxCell>
        <mxCell id="SvfsxJWIayDTi6wD-098-25" style="edgeStyle=orthogonalEdgeStyle;rounded=0;orthogonalLoop=1;jettySize=auto;html=1;exitX=0;exitY=0;exitDx=0;exitDy=0;entryX=1;entryY=0;entryDx=0;entryDy=0;" edge="1" parent="1" source="SvfsxJWIayDTi6wD-098-22" target="SvfsxJWIayDTi6wD-098-3">
          <mxGeometry relative="1" as="geometry">
            <Array as="points">
              <mxPoint x="535" y="370" />
              <mxPoint x="535" y="372" />
            </Array>
          </mxGeometry>
        </mxCell>
        <mxCell id="SvfsxJWIayDTi6wD-098-26" value="CRUD Medicine" style="edgeLabel;html=1;align=center;verticalAlign=middle;resizable=0;points=[];" vertex="1" connectable="0" parent="SvfsxJWIayDTi6wD-098-25">
          <mxGeometry x="-0.4087" y="2" relative="1" as="geometry">
            <mxPoint x="-20" y="-12" as="offset" />
          </mxGeometry>
        </mxCell>
        <mxCell id="SvfsxJWIayDTi6wD-098-27" style="edgeStyle=orthogonalEdgeStyle;rounded=0;orthogonalLoop=1;jettySize=auto;html=1;exitX=0;exitY=0.5;exitDx=0;exitDy=0;entryX=1;entryY=0.5;entryDx=0;entryDy=0;" edge="1" parent="1" source="SvfsxJWIayDTi6wD-098-22" target="SvfsxJWIayDTi6wD-098-3">
          <mxGeometry relative="1" as="geometry" />
        </mxCell>
        <mxCell id="SvfsxJWIayDTi6wD-098-28" value="CRUD Donor List" style="edgeLabel;html=1;align=center;verticalAlign=middle;resizable=0;points=[];" vertex="1" connectable="0" parent="SvfsxJWIayDTi6wD-098-27">
          <mxGeometry x="0.0014" y="1" relative="1" as="geometry">
            <mxPoint y="-11" as="offset" />
          </mxGeometry>
        </mxCell>
        <mxCell id="SvfsxJWIayDTi6wD-098-30" style="edgeStyle=orthogonalEdgeStyle;rounded=0;orthogonalLoop=1;jettySize=auto;html=1;exitX=0;exitY=1;exitDx=0;exitDy=0;entryX=1;entryY=1;entryDx=0;entryDy=0;" edge="1" parent="1" source="SvfsxJWIayDTi6wD-098-22" target="SvfsxJWIayDTi6wD-098-3">
          <mxGeometry relative="1" as="geometry">
            <Array as="points">
              <mxPoint x="535" y="430" />
              <mxPoint x="535" y="428" />
            </Array>
          </mxGeometry>
        </mxCell>
        <mxCell id="SvfsxJWIayDTi6wD-098-31" value="CRUD Doctor Details" style="edgeLabel;html=1;align=center;verticalAlign=middle;resizable=0;points=[];" vertex="1" connectable="0" parent="SvfsxJWIayDTi6wD-098-30">
          <mxGeometry x="-0.0072" relative="1" as="geometry">
            <mxPoint y="-8" as="offset" />
          </mxGeometry>
        </mxCell>
        <mxCell id="SvfsxJWIayDTi6wD-098-22" value="Admin" style="rounded=0;whiteSpace=wrap;html=1;" vertex="1" parent="1">
          <mxGeometry x="630" y="370" width="120" height="60" as="geometry" />
        </mxCell>
      </root>
    </mxGraphModel>
  </diagram>
</mxfile>
